<mxfile host="app.diagrams.net" agent="Mozilla/5.0 (Windows NT 10.0; Win64; x64) AppleWebKit/537.36 (KHTML, like Gecko) Chrome/130.0.0.0 Safari/537.36" version="24.8.6">
  <diagram name="Page-1" id="FFDucG5oGOfps-OhAbP-">
    <mxGraphModel dx="1912" dy="1029" grid="1" gridSize="10" guides="1" tooltips="1" connect="1" arrows="1" fold="1" page="1" pageScale="1" pageWidth="850" pageHeight="1100" math="0" shadow="0">
      <root>
        <mxCell id="0" />
        <mxCell id="1" parent="0" />
        <mxCell id="8up1fQo6_-ufdSc32_0c-540" value="" style="rounded=0;whiteSpace=wrap;html=1;align=center;glass=0;" vertex="1" parent="1">
          <mxGeometry x="540" y="30" width="640" height="1040" as="geometry" />
        </mxCell>
        <mxCell id="8up1fQo6_-ufdSc32_0c-560" style="rounded=0;orthogonalLoop=1;jettySize=auto;html=1;exitX=0.5;exitY=0.5;exitDx=0;exitDy=0;exitPerimeter=0;entryX=0;entryY=0.5;entryDx=0;entryDy=0;endArrow=none;endFill=0;fillColor=none;" edge="1" parent="1" source="8up1fQo6_-ufdSc32_0c-541" target="8up1fQo6_-ufdSc32_0c-545">
          <mxGeometry relative="1" as="geometry" />
        </mxCell>
        <mxCell id="8up1fQo6_-ufdSc32_0c-561" style="rounded=0;orthogonalLoop=1;jettySize=auto;html=1;entryX=0;entryY=0.5;entryDx=0;entryDy=0;endArrow=none;endFill=0;exitX=0.5;exitY=0.5;exitDx=0;exitDy=0;exitPerimeter=0;fillColor=none;" edge="1" parent="1" source="8up1fQo6_-ufdSc32_0c-541" target="8up1fQo6_-ufdSc32_0c-548">
          <mxGeometry relative="1" as="geometry" />
        </mxCell>
        <mxCell id="8up1fQo6_-ufdSc32_0c-562" style="rounded=0;orthogonalLoop=1;jettySize=auto;html=1;exitX=0.5;exitY=0.5;exitDx=0;exitDy=0;exitPerimeter=0;entryX=0;entryY=0.5;entryDx=0;entryDy=0;endArrow=none;endFill=0;fillColor=none;" edge="1" parent="1" source="8up1fQo6_-ufdSc32_0c-541" target="8up1fQo6_-ufdSc32_0c-549">
          <mxGeometry relative="1" as="geometry" />
        </mxCell>
        <mxCell id="8up1fQo6_-ufdSc32_0c-565" style="rounded=0;orthogonalLoop=1;jettySize=auto;html=1;exitX=0.5;exitY=0.5;exitDx=0;exitDy=0;exitPerimeter=0;entryX=0;entryY=0.5;entryDx=0;entryDy=0;endArrow=none;endFill=0;fillColor=none;" edge="1" parent="1" source="8up1fQo6_-ufdSc32_0c-541" target="8up1fQo6_-ufdSc32_0c-553">
          <mxGeometry relative="1" as="geometry" />
        </mxCell>
        <mxCell id="8up1fQo6_-ufdSc32_0c-541" value="Customer" style="shape=umlActor;verticalLabelPosition=bottom;verticalAlign=top;html=1;outlineConnect=0;" vertex="1" parent="1">
          <mxGeometry x="260" y="430" width="70" height="140" as="geometry" />
        </mxCell>
        <mxCell id="8up1fQo6_-ufdSc32_0c-542" value="&lt;span style=&quot;text-align: center;&quot;&gt;&lt;font style=&quot;font-size: 32px;&quot;&gt;BOOKShelf&lt;/font&gt;&lt;/span&gt;" style="text;strokeColor=none;fillColor=none;align=left;verticalAlign=middle;spacingLeft=4;spacingRight=4;overflow=hidden;points=[[0,0.5],[1,0.5]];portConstraint=eastwest;rotatable=0;whiteSpace=wrap;html=1;" vertex="1" parent="1">
          <mxGeometry x="755" y="30" width="180" height="50" as="geometry" />
        </mxCell>
        <mxCell id="8up1fQo6_-ufdSc32_0c-543" value="Inventory" style="shape=umlActor;verticalLabelPosition=bottom;verticalAlign=top;html=1;outlineConnect=0;" vertex="1" parent="1">
          <mxGeometry x="1290" y="280" width="70" height="130" as="geometry" />
        </mxCell>
        <mxCell id="8up1fQo6_-ufdSc32_0c-603" style="rounded=0;orthogonalLoop=1;jettySize=auto;html=1;exitX=0.5;exitY=0.5;exitDx=0;exitDy=0;exitPerimeter=0;endArrow=none;endFill=0;" edge="1" parent="1" source="8up1fQo6_-ufdSc32_0c-544" target="8up1fQo6_-ufdSc32_0c-602">
          <mxGeometry relative="1" as="geometry" />
        </mxCell>
        <mxCell id="8up1fQo6_-ufdSc32_0c-544" value="Bank" style="shape=umlActor;verticalLabelPosition=bottom;verticalAlign=top;html=1;outlineConnect=0;" vertex="1" parent="1">
          <mxGeometry x="1290" y="620" width="70" height="130" as="geometry" />
        </mxCell>
        <mxCell id="8up1fQo6_-ufdSc32_0c-568" style="rounded=0;orthogonalLoop=1;jettySize=auto;html=1;exitX=1;exitY=0.5;exitDx=0;exitDy=0;entryX=0;entryY=0.5;entryDx=0;entryDy=0;dashed=1;" edge="1" parent="1" source="8up1fQo6_-ufdSc32_0c-545" target="8up1fQo6_-ufdSc32_0c-546">
          <mxGeometry relative="1" as="geometry" />
        </mxCell>
        <mxCell id="8up1fQo6_-ufdSc32_0c-545" value="Login" style="ellipse;whiteSpace=wrap;html=1;" vertex="1" parent="1">
          <mxGeometry x="650" y="260" width="120" height="80" as="geometry" />
        </mxCell>
        <mxCell id="8up1fQo6_-ufdSc32_0c-546" value="Validate Credentials" style="ellipse;whiteSpace=wrap;html=1;" vertex="1" parent="1">
          <mxGeometry x="845" y="90" width="120" height="80" as="geometry" />
        </mxCell>
        <mxCell id="8up1fQo6_-ufdSc32_0c-570" style="rounded=0;orthogonalLoop=1;jettySize=auto;html=1;exitX=0;exitY=0.5;exitDx=0;exitDy=0;entryX=1;entryY=0.5;entryDx=0;entryDy=0;dashed=1;" edge="1" parent="1" source="8up1fQo6_-ufdSc32_0c-547" target="8up1fQo6_-ufdSc32_0c-545">
          <mxGeometry relative="1" as="geometry" />
        </mxCell>
        <mxCell id="8up1fQo6_-ufdSc32_0c-547" value="Show Error Message" style="ellipse;whiteSpace=wrap;html=1;" vertex="1" parent="1">
          <mxGeometry x="845" y="260" width="120" height="80" as="geometry" />
        </mxCell>
        <mxCell id="8up1fQo6_-ufdSc32_0c-548" value="&lt;font style=&quot;font-size: 16px;&quot;&gt;Register&lt;/font&gt;" style="ellipse;whiteSpace=wrap;html=1;" vertex="1" parent="1">
          <mxGeometry x="650" y="80" width="120" height="80" as="geometry" />
        </mxCell>
        <mxCell id="8up1fQo6_-ufdSc32_0c-575" style="edgeStyle=orthogonalEdgeStyle;rounded=0;orthogonalLoop=1;jettySize=auto;html=1;exitX=1;exitY=0.5;exitDx=0;exitDy=0;entryX=0;entryY=0.5;entryDx=0;entryDy=0;dashed=1;" edge="1" parent="1" source="8up1fQo6_-ufdSc32_0c-549" target="8up1fQo6_-ufdSc32_0c-550">
          <mxGeometry relative="1" as="geometry" />
        </mxCell>
        <mxCell id="8up1fQo6_-ufdSc32_0c-549" value="Browse Books" style="ellipse;whiteSpace=wrap;html=1;" vertex="1" parent="1">
          <mxGeometry x="650" y="390" width="120" height="80" as="geometry" />
        </mxCell>
        <mxCell id="8up1fQo6_-ufdSc32_0c-550" value="Get Available Books&amp;nbsp;" style="ellipse;whiteSpace=wrap;html=1;" vertex="1" parent="1">
          <mxGeometry x="845" y="390" width="120" height="80" as="geometry" />
        </mxCell>
        <mxCell id="8up1fQo6_-ufdSc32_0c-577" style="edgeStyle=orthogonalEdgeStyle;rounded=0;orthogonalLoop=1;jettySize=auto;html=1;exitX=0.5;exitY=1;exitDx=0;exitDy=0;entryX=0.5;entryY=0;entryDx=0;entryDy=0;dashed=1;" edge="1" parent="1" source="8up1fQo6_-ufdSc32_0c-551" target="8up1fQo6_-ufdSc32_0c-559">
          <mxGeometry relative="1" as="geometry" />
        </mxCell>
        <mxCell id="8up1fQo6_-ufdSc32_0c-551" value="Remove From Cart" style="ellipse;whiteSpace=wrap;html=1;" vertex="1" parent="1">
          <mxGeometry x="650" y="510" width="120" height="80" as="geometry" />
        </mxCell>
        <mxCell id="8up1fQo6_-ufdSc32_0c-553" value="Add To Cart" style="ellipse;whiteSpace=wrap;html=1;" vertex="1" parent="1">
          <mxGeometry x="650" y="840" width="120" height="80" as="geometry" />
        </mxCell>
        <mxCell id="8up1fQo6_-ufdSc32_0c-581" style="rounded=0;orthogonalLoop=1;jettySize=auto;html=1;exitX=0;exitY=0.5;exitDx=0;exitDy=0;entryX=1;entryY=0.5;entryDx=0;entryDy=0;dashed=1;" edge="1" parent="1" source="8up1fQo6_-ufdSc32_0c-554" target="8up1fQo6_-ufdSc32_0c-559">
          <mxGeometry relative="1" as="geometry" />
        </mxCell>
        <mxCell id="8up1fQo6_-ufdSc32_0c-590" style="rounded=0;orthogonalLoop=1;jettySize=auto;html=1;exitX=1;exitY=0.5;exitDx=0;exitDy=0;entryX=0;entryY=0.5;entryDx=0;entryDy=0;dashed=1;" edge="1" parent="1" source="8up1fQo6_-ufdSc32_0c-554" target="8up1fQo6_-ufdSc32_0c-558">
          <mxGeometry relative="1" as="geometry" />
        </mxCell>
        <mxCell id="8up1fQo6_-ufdSc32_0c-554" value="Pay Online" style="ellipse;whiteSpace=wrap;html=1;" vertex="1" parent="1">
          <mxGeometry x="845" y="675" width="120" height="80" as="geometry" />
        </mxCell>
        <mxCell id="8up1fQo6_-ufdSc32_0c-582" style="rounded=0;orthogonalLoop=1;jettySize=auto;html=1;exitX=0;exitY=0.5;exitDx=0;exitDy=0;entryX=1;entryY=0.5;entryDx=0;entryDy=0;dashed=1;" edge="1" parent="1" source="8up1fQo6_-ufdSc32_0c-555" target="8up1fQo6_-ufdSc32_0c-559">
          <mxGeometry relative="1" as="geometry" />
        </mxCell>
        <mxCell id="8up1fQo6_-ufdSc32_0c-555" value="Pay on Delivery" style="ellipse;whiteSpace=wrap;html=1;" vertex="1" parent="1">
          <mxGeometry x="845" y="510" width="120" height="80" as="geometry" />
        </mxCell>
        <mxCell id="8up1fQo6_-ufdSc32_0c-556" value="Pay using Card" style="ellipse;whiteSpace=wrap;html=1;" vertex="1" parent="1">
          <mxGeometry x="725" y="960" width="120" height="80" as="geometry" />
        </mxCell>
        <mxCell id="8up1fQo6_-ufdSc32_0c-557" value="Pay using Paypal" style="ellipse;whiteSpace=wrap;html=1;" vertex="1" parent="1">
          <mxGeometry x="965" y="960" width="120" height="80" as="geometry" />
        </mxCell>
        <mxCell id="8up1fQo6_-ufdSc32_0c-558" value="Place Order" style="ellipse;whiteSpace=wrap;html=1;" vertex="1" parent="1">
          <mxGeometry x="1030" y="510" width="120" height="80" as="geometry" />
        </mxCell>
        <mxCell id="8up1fQo6_-ufdSc32_0c-559" value="View Cart" style="ellipse;whiteSpace=wrap;html=1;" vertex="1" parent="1">
          <mxGeometry x="650" y="680" width="120" height="80" as="geometry" />
        </mxCell>
        <mxCell id="8up1fQo6_-ufdSc32_0c-564" style="rounded=0;orthogonalLoop=1;jettySize=auto;html=1;exitX=0.5;exitY=0.5;exitDx=0;exitDy=0;exitPerimeter=0;entryX=-0.006;entryY=0.593;entryDx=0;entryDy=0;entryPerimeter=0;endArrow=none;endFill=0;fillColor=none;" edge="1" parent="1" source="8up1fQo6_-ufdSc32_0c-541" target="8up1fQo6_-ufdSc32_0c-559">
          <mxGeometry relative="1" as="geometry" />
        </mxCell>
        <mxCell id="8up1fQo6_-ufdSc32_0c-569" value="&amp;lt;&amp;lt;include&amp;gt;&amp;gt;" style="text;html=1;align=center;verticalAlign=middle;whiteSpace=wrap;rounded=0;rotation=-60;" vertex="1" parent="1">
          <mxGeometry x="770" y="190" width="60" height="30" as="geometry" />
        </mxCell>
        <mxCell id="8up1fQo6_-ufdSc32_0c-571" value="&amp;lt;&amp;lt;extend&amp;gt;&amp;gt;" style="text;html=1;align=center;verticalAlign=middle;whiteSpace=wrap;rounded=0;rotation=0;" vertex="1" parent="1">
          <mxGeometry x="780" y="280" width="60" height="30" as="geometry" />
        </mxCell>
        <mxCell id="8up1fQo6_-ufdSc32_0c-574" value="&amp;lt;&amp;lt;include&amp;gt;&amp;gt;" style="text;html=1;align=center;verticalAlign=middle;whiteSpace=wrap;rounded=0;rotation=0;" vertex="1" parent="1">
          <mxGeometry x="780" y="400" width="60" height="30" as="geometry" />
        </mxCell>
        <mxCell id="8up1fQo6_-ufdSc32_0c-576" style="rounded=0;orthogonalLoop=1;jettySize=auto;html=1;exitX=1;exitY=0.5;exitDx=0;exitDy=0;entryX=0.5;entryY=0.5;entryDx=0;entryDy=0;entryPerimeter=0;endArrow=none;endFill=0;" edge="1" parent="1" source="8up1fQo6_-ufdSc32_0c-550" target="8up1fQo6_-ufdSc32_0c-543">
          <mxGeometry relative="1" as="geometry" />
        </mxCell>
        <mxCell id="8up1fQo6_-ufdSc32_0c-578" value="&amp;lt;&amp;lt;extend&amp;gt;&amp;gt;" style="text;html=1;align=center;verticalAlign=middle;whiteSpace=wrap;rounded=0;rotation=90;" vertex="1" parent="1">
          <mxGeometry x="690" y="610" width="60" height="30" as="geometry" />
        </mxCell>
        <mxCell id="8up1fQo6_-ufdSc32_0c-584" style="rounded=0;orthogonalLoop=1;jettySize=auto;html=1;exitX=0;exitY=0.5;exitDx=0;exitDy=0;exitPerimeter=0;entryX=0.5;entryY=1;entryDx=0;entryDy=0;" edge="1" parent="1" source="8up1fQo6_-ufdSc32_0c-583" target="8up1fQo6_-ufdSc32_0c-554">
          <mxGeometry relative="1" as="geometry" />
        </mxCell>
        <mxCell id="8up1fQo6_-ufdSc32_0c-585" style="edgeStyle=orthogonalEdgeStyle;rounded=0;orthogonalLoop=1;jettySize=auto;html=1;exitX=1;exitY=1;exitDx=0;exitDy=0;exitPerimeter=0;entryX=0.5;entryY=0;entryDx=0;entryDy=0;endArrow=none;endFill=0;" edge="1" parent="1" source="8up1fQo6_-ufdSc32_0c-583" target="8up1fQo6_-ufdSc32_0c-556">
          <mxGeometry relative="1" as="geometry" />
        </mxCell>
        <mxCell id="8up1fQo6_-ufdSc32_0c-586" style="rounded=0;orthogonalLoop=1;jettySize=auto;html=1;exitX=1;exitY=0;exitDx=0;exitDy=0;exitPerimeter=0;entryX=0.5;entryY=0;entryDx=0;entryDy=0;endArrow=none;endFill=0;edgeStyle=orthogonalEdgeStyle;" edge="1" parent="1" source="8up1fQo6_-ufdSc32_0c-583" target="8up1fQo6_-ufdSc32_0c-557">
          <mxGeometry relative="1" as="geometry" />
        </mxCell>
        <mxCell id="8up1fQo6_-ufdSc32_0c-583" value="" style="strokeWidth=2;html=1;shape=mxgraph.flowchart.annotation_2;align=left;labelPosition=right;pointerEvents=1;rotation=90;" vertex="1" parent="1">
          <mxGeometry x="880" y="830" width="50" height="100" as="geometry" />
        </mxCell>
        <mxCell id="8up1fQo6_-ufdSc32_0c-587" value="&amp;lt;&amp;lt;extend&amp;gt;&amp;gt;" style="text;html=1;align=center;verticalAlign=middle;whiteSpace=wrap;rounded=0;rotation=-65;" vertex="1" parent="1">
          <mxGeometry x="770" y="610" width="60" height="30" as="geometry" />
        </mxCell>
        <mxCell id="8up1fQo6_-ufdSc32_0c-588" value="&amp;lt;&amp;lt;extend&amp;gt;&amp;gt;" style="text;html=1;align=center;verticalAlign=middle;whiteSpace=wrap;rounded=0;rotation=0;" vertex="1" parent="1">
          <mxGeometry x="785" y="690" width="60" height="30" as="geometry" />
        </mxCell>
        <mxCell id="8up1fQo6_-ufdSc32_0c-589" style="rounded=0;orthogonalLoop=1;jettySize=auto;html=1;exitX=1;exitY=0.5;exitDx=0;exitDy=0;entryX=0.027;entryY=0.46;entryDx=0;entryDy=0;entryPerimeter=0;dashed=1;" edge="1" parent="1" source="8up1fQo6_-ufdSc32_0c-555" target="8up1fQo6_-ufdSc32_0c-558">
          <mxGeometry relative="1" as="geometry" />
        </mxCell>
        <mxCell id="8up1fQo6_-ufdSc32_0c-591" value="&amp;lt;&amp;lt;include&amp;gt;&amp;gt;" style="text;html=1;align=center;verticalAlign=middle;whiteSpace=wrap;rounded=0;rotation=0;" vertex="1" parent="1">
          <mxGeometry x="965" y="520" width="60" height="30" as="geometry" />
        </mxCell>
        <mxCell id="8up1fQo6_-ufdSc32_0c-592" value="&amp;lt;&amp;lt;include&amp;gt;&amp;gt;" style="text;html=1;align=center;verticalAlign=middle;whiteSpace=wrap;rounded=0;rotation=-70;" vertex="1" parent="1">
          <mxGeometry x="950" y="630" width="60" height="30" as="geometry" />
        </mxCell>
        <mxCell id="8up1fQo6_-ufdSc32_0c-598" style="rounded=0;orthogonalLoop=1;jettySize=auto;html=1;exitX=1;exitY=0.5;exitDx=0;exitDy=0;entryX=0.5;entryY=0.5;entryDx=0;entryDy=0;entryPerimeter=0;endArrow=none;endFill=0;" edge="1" parent="1" source="8up1fQo6_-ufdSc32_0c-554" target="8up1fQo6_-ufdSc32_0c-544">
          <mxGeometry relative="1" as="geometry" />
        </mxCell>
        <mxCell id="8up1fQo6_-ufdSc32_0c-601" style="rounded=0;orthogonalLoop=1;jettySize=auto;html=1;exitX=0.5;exitY=0;exitDx=0;exitDy=0;entryX=0.5;entryY=0.5;entryDx=0;entryDy=0;entryPerimeter=0;endArrow=none;endFill=0;" edge="1" parent="1" source="8up1fQo6_-ufdSc32_0c-558" target="8up1fQo6_-ufdSc32_0c-543">
          <mxGeometry relative="1" as="geometry" />
        </mxCell>
        <mxCell id="8up1fQo6_-ufdSc32_0c-604" style="rounded=0;orthogonalLoop=1;jettySize=auto;html=1;exitX=0;exitY=0.5;exitDx=0;exitDy=0;entryX=1;entryY=0.5;entryDx=0;entryDy=0;dashed=1;" edge="1" parent="1" source="8up1fQo6_-ufdSc32_0c-602" target="8up1fQo6_-ufdSc32_0c-554">
          <mxGeometry relative="1" as="geometry" />
        </mxCell>
        <mxCell id="8up1fQo6_-ufdSc32_0c-602" value="Fail to pay&amp;nbsp;" style="ellipse;whiteSpace=wrap;html=1;" vertex="1" parent="1">
          <mxGeometry x="1030" y="840" width="120" height="80" as="geometry" />
        </mxCell>
        <mxCell id="8up1fQo6_-ufdSc32_0c-605" value="&amp;lt;&amp;lt;extend&amp;gt;&amp;gt;" style="text;html=1;align=center;verticalAlign=middle;whiteSpace=wrap;rounded=0;rotation=68;" vertex="1" parent="1">
          <mxGeometry x="980" y="775" width="60" height="30" as="geometry" />
        </mxCell>
      </root>
    </mxGraphModel>
  </diagram>
</mxfile>
